<svg width="600" height="600" viewBox="0 0 600 600" fill="none" xmlns="http://www.w3.org/2000/svg">
<g clip-path="url(#clip0_97_366)">
<path d="M600 0.399994H0V600.4H600V0.399994Z" fill="#4F3183"/>
<path d="M83.4 0.399994H520.4C549.8 19.4 576.5 42.2 600 68V0.399994H0V72.2C24.3 44.7 52.4 20.5 83.4 0.399994Z" fill="#4F3183"/>
<path d="M199.2 600.4C94.7 559.4 20.7 457.6 20.7 338.6C20.7 183.3 146.6 57.4 301.9 57.4C457.2 57.4 583.1 183.3 583.1 338.6C583.1 457.7 509.1 559.4 404.6 600.4H600V68C576.6 42.2 549.8 19.4 520.4 0.399994H83.4C52.4 20.5 24.4 44.7 0 72.2V600.4H199.2Z" fill="#4F3183"/>
<path d="M583.1 338.6C583.1 183.3 457.2 57.4 301.9 57.4C146.6 57.4 20.7002 183.3 20.7002 338.6C20.7002 457.7 94.7002 559.4 199.2 600.4H404.6C509.1 559.4 583.1 457.6 583.1 338.6Z" fill="#4F3183"/>
<path opacity="0.15" d="M583.1 338.6C583.1 183.3 457.2 57.4 301.9 57.4C146.6 57.4 20.7002 183.3 20.7002 338.6C20.7002 457.7 94.7002 559.4 199.2 600.4H404.6C509.1 559.4 583.1 457.6 583.1 338.6Z" fill="#331F5B"/>
<path opacity="0.15" d="M301.9 530.6C407.939 530.6 493.9 444.639 493.9 338.6C493.9 232.561 407.939 146.6 301.9 146.6C195.861 146.6 109.9 232.561 109.9 338.6C109.9 444.639 195.861 530.6 301.9 530.6Z" fill="#331F5B"/>
<path d="M387.9 250.4C366.2 227 337 212 305.5 208.2C305.5 206 305.5 203.8 305.5 201.7H305.8C307.5 201.7 308.8 200.4 308.8 198.7V183.4L310.6 177.1C310.7 176.8 310.7 176.6 310.7 176.3V165.7C310.7 164 309.4 162.7 307.7 162.7H304.2C302.6 160.7 300.6 159 298.4 157.7V144C298.4 142.9 297.8 141.9 296.9 141.4V123.1C296.9 118.7 293.3 115.1 288.9 115.1C284.5 115.1 280.9 118.7 280.9 123.1V141.6C280.1 142.1 279.6 143 279.6 144.1V157.8C277.3 159 275.4 160.7 273.8 162.8H270C268.3 162.8 267 164.1 267 165.8V176.4C267 176.7 267 176.9 267.1 177.2L268.9 183.5V198.8C268.9 200.5 270.2 201.8 271.9 201.8H272.2C272.2 204 272.2 206.2 272.2 208.4C241.8 212.2 213.6 226.3 192.2 248.3C189.6 247.3 186.8 246.8 184 246.8C171.8 246.8 161.8 255.9 160.4 267.7C154.3 270.6 150.3 276.8 150.3 283.7C150.3 290.8 154.5 297.1 160.8 300C156.3 313.6 154.1 327.7 154.1 342.2C154.1 381.2 171 418.3 200.5 444L201 444.4C201.8 445.1 202.7 445.8 203.5 446.5L204.3 447.2C205.3 448 206.3 448.8 207.2 449.5L207.3 449.6C208.3 450.4 209.4 451.1 210.4 451.9L211.2 452.5C212.1 453.1 213 453.7 213.9 454.3L214.5 454.7C215.6 455.4 216.7 456.1 217.8 456.8L218.6 457.3C219.5 457.8 220.4 458.4 221.3 458.9C229.8 463.9 238.9 467.9 248.3 470.8L252.2 472C252.4 472.1 252.7 472.1 252.9 472.1L253.2 472.2C254.8 472.6 256.3 473 257.9 473.4L258.2 473.5C261.3 474.2 264.5 474.9 267.8 475.4L268.5 475.5C270.1 475.7 271.7 476 273.2 476.1H273.5C274.9 476.3 276.4 476.4 278 476.5L278.7 476.6C280.2 476.7 281.7 476.8 283.3 476.9H284.2C286 477 287.5 477 288.9 477C290.3 477 291.8 477 293.6 476.9H294.6C296.3 476.8 297.8 476.7 299.3 476.6H299.8C301.2 476.5 302.7 476.3 304.1 476.2L304.8 476.1C306.4 475.9 307.9 475.7 309.5 475.5L310.1 475.4C313.3 474.9 316.5 474.3 319.6 473.6L320.1 473.5C323.3 472.8 326.4 471.9 329.5 470.9C338.7 468 347.7 464.1 356.1 459.2C357.3 458.5 358.5 457.8 359.6 457.1L359.9 456.9C361 456.2 362 455.6 363 454.9L363.7 454.5C365.9 453 368.2 451.4 370.3 449.8L370.9 449.4C371.8 448.7 372.7 448 373.6 447.3L374.1 446.9C375.1 446 376.2 445.2 377.2 444.3L377.4 444.1C378.3 443.3 379.2 442.5 380.2 441.6L380.8 441C408.2 415.6 423.9 379.5 423.9 342.2C423.8 307.9 411.1 275.4 387.9 250.4Z" fill="#4F3183"/>
<path d="M401.2 246.6C379.5 223.2 350.4 208.2 318.9 204.3C318.9 202.4 318.9 200.6 318.9 198.7C320.7 198.6 322.2 197.1 322.2 195.2V179.9L323.9 173.6C324 173.3 324 173 324 172.7V162C324 160.1 322.4 158.5 320.5 158.5H317.3C315.7 156.6 313.9 155 311.7 153.7V140.3C311.7 139.1 311.1 138 310.2 137.4V119.4C310.2 114.7 306.4 110.9 301.7 110.9C297 110.9 293.2 114.7 293.2 119.4V137.6C292.4 138.2 291.9 139.2 291.9 140.3V153.7C289.8 154.9 287.9 156.5 286.3 158.5H283C281.1 158.5 279.5 160.1 279.5 162V172.6C279.5 172.9 279.5 173.2 279.6 173.5L281.3 179.8V195.1C281.3 197 282.8 198.5 284.6 198.6C284.6 200.5 284.6 202.4 284.6 204.2C254.4 208.1 226.3 222.1 204.9 244C202.3 243.1 199.6 242.6 196.8 242.6C184.4 242.6 174.3 251.7 172.7 263.7C166.6 266.7 162.6 273.1 162.6 280.1C162.6 287.3 166.7 293.6 173 296.6C168.6 310.1 166.4 324.2 166.4 338.5C166.4 377.7 183.4 414.9 213 440.7L213.5 441.1C214.3 441.8 215.2 442.5 216 443.2L216.8 443.9C217.8 444.7 218.8 445.5 219.8 446.2L219.9 446.3C220.9 447.1 222 447.9 223 448.6L223.8 449.2C224.7 449.8 225.6 450.4 226.5 451L227.1 451.4C228.2 452.1 229.3 452.8 230.4 453.5L231.2 454C232.1 454.5 233 455.1 233.9 455.6C242.5 460.6 251.6 464.6 261 467.6L264.9 468.8C265.2 468.9 265.4 468.9 265.7 468.9L266 469C267.6 469.4 269.2 469.8 270.8 470.2L271.1 470.3C274.2 471 277.4 471.7 280.7 472.2L281.4 472.3C283 472.5 284.6 472.8 286.2 472.9H286.5C287.9 473.1 289.4 473.2 291 473.3L291.7 473.4C293.2 473.5 294.7 473.6 296.3 473.7H297.2C299 473.8 300.5 473.8 302 473.8C303.4 473.8 304.9 473.8 306.8 473.7H307.8C309.5 473.6 311 473.5 312.5 473.4H313C314.4 473.3 315.9 473.1 317.4 473L318.1 472.9C319.7 472.7 321.2 472.5 322.8 472.3L323.4 472.2C326.6 471.7 329.8 471.1 332.9 470.3L333.4 470.2C336.6 469.4 339.8 468.6 342.8 467.6C352.1 464.7 361.1 460.7 369.5 455.9C370.7 455.2 371.9 454.5 373.1 453.8L373.4 453.6C374.5 452.9 375.5 452.3 376.5 451.6L377.2 451.2C379.4 449.7 381.7 448.1 383.8 446.5L384.4 446.1C385.3 445.4 386.2 444.7 387.1 444L387.6 443.6C388.7 442.7 389.7 441.9 390.7 441L390.9 440.8C391.8 440 392.7 439.2 393.7 438.3L394.3 437.7C421.8 412.2 437.5 376 437.5 338.5C437.3 304.3 424.5 271.6 401.2 246.6Z" fill="white"/>
<path d="M301.9 467.5C373.09 467.5 430.8 409.789 430.8 338.6C430.8 267.41 373.09 209.7 301.9 209.7C230.71 209.7 173 267.41 173 338.6C173 409.789 230.71 467.5 301.9 467.5Z" fill="#F7A031"/>
<path d="M301.9 467.5C373.09 467.5 430.8 409.789 430.8 338.6C430.8 267.41 373.09 209.7 301.9 209.7C230.71 209.7 173 267.41 173 338.6C173 409.789 230.71 467.5 301.9 467.5Z" fill="#F7A031"/>
<path d="M301.9 467.5C373.09 467.5 430.8 409.789 430.8 338.6C430.8 267.41 373.09 209.7 301.9 209.7C230.71 209.7 173 267.41 173 338.6C173 409.789 230.71 467.5 301.9 467.5Z" stroke="#140735" stroke-width="4" stroke-miterlimit="10" stroke-linecap="round" stroke-linejoin="round"/>
<path d="M301.9 434.7C354.975 434.7 398 391.675 398 338.6C398 285.525 354.975 242.5 301.9 242.5C248.826 242.5 205.8 285.525 205.8 338.6C205.8 391.675 248.826 434.7 301.9 434.7Z" fill="#FBC14C"/>
<path d="M301.9 400.6C336.142 400.6 363.9 372.842 363.9 338.6C363.9 304.358 336.142 276.6 301.9 276.6C267.658 276.6 239.9 304.358 239.9 338.6C239.9 372.842 267.658 400.6 301.9 400.6Z" fill="#FFDB81"/>
<path d="M384.5 322.9H382.9C382.9 322.6 382.9 322.3 382.9 322C382.9 315.6 377.7 310.5 371.4 310.5C365.8 310.5 361.1 314.5 360.1 319.8H360C355.3 319.8 351.5 323.6 351.5 328.3C351.5 333 355.3 336.8 360 336.8H371H380.3H384.6C388.5 336.8 391.6 333.7 391.6 329.8C391.6 325.9 388.4 322.9 384.5 322.9Z" fill="white"/>
<path d="M384.5 322.9H382.9C382.9 322.6 382.9 322.3 382.9 322C382.9 315.6 377.7 310.5 371.4 310.5C365.8 310.5 361.1 314.5 360.1 319.8H360C355.3 319.8 351.5 323.6 351.5 328.3C351.5 333 355.3 336.8 360 336.8H371H380.3H384.6C388.5 336.8 391.6 333.7 391.6 329.8C391.6 325.9 388.4 322.9 384.5 322.9Z" stroke="#140735" stroke-width="4" stroke-miterlimit="10" stroke-linecap="round" stroke-linejoin="round"/>
<path opacity="0.6" d="M330.6 228.2C329.8 228.2 329.2 227.6 329.2 226.8C329.2 225.8 328.4 224.9 327.3 224.9C326.3 224.9 325.4 225.7 325.4 226.8C325.4 227.6 324.8 228.2 324 228.2C323 228.2 322.1 229 322.1 230.1C322.1 231.1 322.9 232 324 232C324.8 232 325.4 232.6 325.4 233.4C325.4 234.4 326.2 235.3 327.3 235.3C328.3 235.3 329.2 234.5 329.2 233.4C329.2 232.6 329.8 232 330.6 232C331.6 232 332.5 231.2 332.5 230.1C332.5 229 331.6 228.2 330.6 228.2Z" fill="#F7A031"/>
<path opacity="0.6" d="M374.4 367.6C373.7 367.6 373.1 367 373.1 366.3C373.1 365.4 372.3 364.6 371.4 364.6C370.5 364.6 369.7 365.4 369.7 366.3C369.7 367 369.1 367.6 368.4 367.6C367.5 367.6 366.7 368.4 366.7 369.3C366.7 370.2 367.5 371 368.4 371C369.1 371 369.7 371.6 369.7 372.3C369.7 373.2 370.5 374 371.4 374C372.3 374 373.1 373.2 373.1 372.3C373.1 371.6 373.7 371 374.4 371C375.3 371 376.1 370.2 376.1 369.3C376 368.3 375.3 367.6 374.4 367.6Z" fill="#F7A031"/>
<path opacity="0.6" d="M250.5 344.9C249.9 344.9 249.4 344.4 249.4 343.8C249.4 343 248.8 342.4 248 342.4C247.2 342.4 246.6 343 246.6 343.8C246.6 344.4 246.1 344.9 245.5 344.9C244.7 344.9 244.1 345.5 244.1 346.3C244.1 347.1 244.7 347.7 245.5 347.7C246.1 347.7 246.6 348.2 246.6 348.8C246.6 349.6 247.2 350.2 248 350.2C248.8 350.2 249.4 349.6 249.4 348.8C249.4 348.2 249.9 347.7 250.5 347.7C251.3 347.7 251.9 347.1 251.9 346.3C251.9 345.5 251.3 344.9 250.5 344.9Z" fill="#F7A031"/>
<path d="M197.4 329.5C197 329.5 196.8 329.2 196.8 328.9C196.8 328.4 196.4 328 195.9 328C195.4 328 195 328.4 195 328.9C195 329.3 194.7 329.5 194.4 329.5C193.9 329.5 193.5 329.9 193.5 330.4C193.5 330.9 193.9 331.3 194.4 331.3C194.8 331.3 195 331.6 195 331.9C195 332.4 195.4 332.8 195.9 332.8C196.4 332.8 196.8 332.4 196.8 331.9C196.8 331.5 197.1 331.3 197.4 331.3C197.9 331.3 198.3 330.9 198.3 330.4C198.3 329.9 197.9 329.5 197.4 329.5Z" fill="white"/>
<path d="M377.1 262.7C376.6 262.7 376.1 262.3 376.1 261.7C376.1 261 375.5 260.4 374.8 260.4C374.1 260.4 373.5 261 373.5 261.7C373.5 262.2 373.1 262.7 372.5 262.7C371.8 262.7 371.2 263.3 371.2 264C371.2 264.7 371.8 265.3 372.5 265.3C373 265.3 373.5 265.7 373.5 266.3C373.5 267 374.1 267.6 374.8 267.6C375.5 267.6 376.1 267 376.1 266.3C376.1 265.8 376.5 265.3 377.1 265.3C377.8 265.3 378.4 264.7 378.4 264C378.3 263.2 377.8 262.7 377.1 262.7Z" fill="white"/>
<path opacity="0.49" d="M268.2 266.1C267.7 266.1 267.2 265.7 267.2 265.1C267.2 264.4 266.6 263.8 265.9 263.8C265.2 263.8 264.6 264.4 264.6 265.1C264.6 265.6 264.2 266.1 263.6 266.1C262.9 266.1 262.3 266.7 262.3 267.4C262.3 268.1 262.9 268.7 263.6 268.7C264.1 268.7 264.6 269.1 264.6 269.7C264.6 270.4 265.2 271 265.9 271C266.6 271 267.2 270.4 267.2 269.7C267.2 269.2 267.6 268.7 268.2 268.7C268.9 268.7 269.5 268.1 269.5 267.4C269.5 266.7 268.9 266.1 268.2 266.1Z" fill="white"/>
<path d="M233.5 270.7V270.6C233.5 262.7 227.1 256.3 219.2 256.3C216.7 256.3 214.3 257 212.2 258.1C209.1 252.8 203.4 249.2 196.8 249.2C187 249.2 179 257.1 179 267C179 267.5 179 268.1 179.1 268.6C173.4 269.5 169.1 274.4 169.1 280.3C169.1 286.8 174.4 292.1 180.9 292.1H195.7H224.4H231.9C237.6 292.1 242.2 287.5 242.2 281.8V280.9C242.3 275.6 238.5 271.4 233.5 270.7Z" fill="white"/>
<path d="M233.5 270.7V270.6C233.5 262.7 227.1 256.3 219.2 256.3C216.7 256.3 214.3 257 212.2 258.1C209.1 252.8 203.4 249.2 196.8 249.2C187 249.2 179 257.1 179 267C179 267.5 179 268.1 179.1 268.6C173.4 269.5 169.1 274.4 169.1 280.3C169.1 286.8 174.4 292.1 180.9 292.1H195.7H224.4H231.9C237.6 292.1 242.2 287.5 242.2 281.8V280.9C242.3 275.6 238.5 271.4 233.5 270.7Z" stroke="#140735" stroke-width="4" stroke-miterlimit="10" stroke-linecap="round" stroke-linejoin="round"/>
<path d="M235.5 474.9H257.3C262.8 454 280.9 439.6 302 439.6C323 439.6 341.1 454 346.7 474.9H370L343.3 433.9C343.3 433.9 303.6 422.4 306.1 420.6C308.6 418.8 252.8 443.9 252.8 443.9L235.5 474.9Z" fill="#AF1956"/>
<path d="M235.5 474.9H257.3C262.8 454 280.9 439.6 302 439.6C323 439.6 341.1 454 346.7 474.9H370L343.3 433.9C343.3 433.9 303.6 422.4 306.1 420.6C308.6 418.8 252.8 443.9 252.8 443.9L235.5 474.9Z" stroke="#140735" stroke-width="3" stroke-miterlimit="10" stroke-linecap="round" stroke-linejoin="round"/>
<path d="M312.5 172.5H291.1C291.1 293.1 294.8 373.4 221.2 474.9H249C254.6 450.1 276.2 431.6 301.9 431.6C327.6 431.6 349.2 450.1 354.8 474.9H382.3C308.7 373.4 312.5 293.1 312.5 172.5ZM286.1 393.2C299.6 348.8 301.3 285.7 301.9 252.2C302.5 285.7 304.2 348.8 317.7 393.2H286.1Z" fill="#FB2276"/>
<path d="M303.4 251.3C303.1 267.9 307.1 292.6 304.9 317.8C307.1 343.5 310.9 370.7 317.7 393.2H323.7C310.2 348.8 304 284.8 303.4 251.3Z" fill="#FB2276"/>
<path d="M297.1 172.5H291.1C291.1 293.1 294.8 373.4 221.2 474.9H227.2C300.8 373.4 297.1 293.1 297.1 172.5Z" fill="#FB2276"/>
<path d="M307.9 431.6C306.9 431.6 305.9 431.6 304.9 431.7C329.3 433.1 349.4 451.1 354.8 474.9H360.8C355.2 450.1 333.6 431.6 307.9 431.6Z" fill="#FB2276"/>
<path d="M327.2 409.5C327.2 409.5 337.3 438.5 341.4 445.5C336.7 446.7 336.3 445 336.3 445L332.2 436.1L322.8 409.5H327.2Z" fill="#FB2276"/>
<path d="M280.4 409.5C280.4 409.5 274 431.2 267.4 443.9" stroke="#140735" stroke-width="4" stroke-miterlimit="10" stroke-linecap="round" stroke-linejoin="round"/>
<path d="M322.8 409.5C322.8 409.5 329.2 431.2 335.8 443.9" stroke="#140735" stroke-width="4" stroke-miterlimit="10" stroke-linecap="round" stroke-linejoin="round"/>
<path d="M317.7 393.2C304.2 348.8 302.5 285.7 301.9 252.2C301.3 285.7 299.6 348.8 286.1 393.2H317.7Z" stroke="#140735" stroke-width="3" stroke-miterlimit="10" stroke-linecap="round" stroke-linejoin="round"/>
<g opacity="0.2">
<path d="M346.9 463.9H375.7" stroke="#140735" stroke-miterlimit="10" stroke-linecap="round" stroke-linejoin="round"/>
<path d="M228.9 463.9H256.6" stroke="#140735" stroke-miterlimit="10" stroke-linecap="round" stroke-linejoin="round"/>
<path d="M343.1 453.9H368.3" stroke="#140735" stroke-miterlimit="10" stroke-linecap="round" stroke-linejoin="round"/>
<path d="M235.5 453.9H260.4" stroke="#140735" stroke-miterlimit="10" stroke-linecap="round" stroke-linejoin="round"/>
<path d="M336.1 443.9H361.9" stroke="#140735" stroke-miterlimit="10" stroke-linecap="round" stroke-linejoin="round"/>
<path d="M241.6 443.9H267.4" stroke="#140735" stroke-miterlimit="10" stroke-linecap="round" stroke-linejoin="round"/>
<path d="M316.4 433.9H356.2" stroke="#140735" stroke-miterlimit="10" stroke-linecap="round" stroke-linejoin="round"/>
<path d="M247.3 433.9H286.1" stroke="#140735" stroke-miterlimit="10" stroke-linecap="round" stroke-linejoin="round"/>
<path d="M252.6 423.9H350.5" stroke="#140735" stroke-miterlimit="10" stroke-linecap="round" stroke-linejoin="round"/>
<path d="M257.7 413.9H345.9" stroke="#140735" stroke-miterlimit="10" stroke-linecap="round" stroke-linejoin="round"/>
<path d="M261.9 403.9H341.4" stroke="#140735" stroke-miterlimit="10" stroke-linecap="round" stroke-linejoin="round"/>
<path d="M266 393.9H337.3" stroke="#140735" stroke-miterlimit="10" stroke-linecap="round" stroke-linejoin="round"/>
<path d="M315.1 383.9H333.9" stroke="#140735" stroke-miterlimit="10" stroke-linecap="round" stroke-linejoin="round"/>
<path d="M269.5 383.9H288.7" stroke="#140735" stroke-miterlimit="10" stroke-linecap="round" stroke-linejoin="round"/>
<path d="M312.8 373.9H330.6" stroke="#140735" stroke-miterlimit="10" stroke-linecap="round" stroke-linejoin="round"/>
<path d="M272.8 373.9H291" stroke="#140735" stroke-miterlimit="10" stroke-linecap="round" stroke-linejoin="round"/>
<path d="M311 363.9H327.2" stroke="#140735" stroke-miterlimit="10" stroke-linecap="round" stroke-linejoin="round"/>
<path d="M275.8 363.9H293" stroke="#140735" stroke-miterlimit="10" stroke-linecap="round" stroke-linejoin="round"/>
<path d="M309.4 353.9H325.1" stroke="#140735" stroke-miterlimit="10" stroke-linecap="round" stroke-linejoin="round"/>
<path d="M278.1 353.9H294.7" stroke="#140735" stroke-miterlimit="10" stroke-linecap="round" stroke-linejoin="round"/>
<path d="M282.3 333.9H321.8" stroke="#140735" stroke-miterlimit="10" stroke-linecap="round" stroke-linejoin="round"/>
<path d="M305.7 323.9H317.7" stroke="#140735" stroke-miterlimit="10" stroke-linecap="round" stroke-linejoin="round"/>
<path d="M284.4 323.9H298.3" stroke="#140735" stroke-miterlimit="10" stroke-linecap="round" stroke-linejoin="round"/>
<path d="M304.6 313.9H317.7" stroke="#140735" stroke-miterlimit="10" stroke-linecap="round" stroke-linejoin="round"/>
<path d="M286.1 313.9H299.1" stroke="#140735" stroke-miterlimit="10" stroke-linecap="round" stroke-linejoin="round"/>
<path d="M303.9 303.9H316.5" stroke="#140735" stroke-miterlimit="10" stroke-linecap="round" stroke-linejoin="round"/>
<path d="M287 303.9H299.9" stroke="#140735" stroke-miterlimit="10" stroke-linecap="round" stroke-linejoin="round"/>
<path d="M303.4 293.9H315.5" stroke="#140735" stroke-miterlimit="10" stroke-linecap="round" stroke-linejoin="round"/>
<path d="M288.1 293.9H300.5" stroke="#140735" stroke-miterlimit="10" stroke-linecap="round" stroke-linejoin="round"/>
<path d="M303 283.9H314.7" stroke="#140735" stroke-miterlimit="10" stroke-linecap="round" stroke-linejoin="round"/>
<path d="M288.9 283.9H300.7" stroke="#140735" stroke-miterlimit="10" stroke-linecap="round" stroke-linejoin="round"/>
<path d="M289.9 273.9H314" stroke="#140735" stroke-miterlimit="10" stroke-linecap="round" stroke-linejoin="round"/>
<path d="M289.9 263.9H313.5" stroke="#140735" stroke-miterlimit="10" stroke-linecap="round" stroke-linejoin="round"/>
<path d="M290.4 253.9H313.1" stroke="#140735" stroke-miterlimit="10" stroke-linecap="round" stroke-linejoin="round"/>
<path d="M290.7 243.9H312.9" stroke="#140735" stroke-miterlimit="10" stroke-linecap="round" stroke-linejoin="round"/>
<path d="M290.9 233.9H312.9" stroke="#140735" stroke-miterlimit="10" stroke-linecap="round" stroke-linejoin="round"/>
<path d="M290.9 223.9H312.5" stroke="#140735" stroke-miterlimit="10" stroke-linecap="round" stroke-linejoin="round"/>
<path d="M290.9 213.9H312.4" stroke="#140735" stroke-miterlimit="10" stroke-linecap="round" stroke-linejoin="round"/>
<path d="M291.3 203.9H312.4" stroke="#140735" stroke-miterlimit="10" stroke-linecap="round" stroke-linejoin="round"/>
<path d="M291.4 199.9H312.4" stroke="#140735" stroke-miterlimit="10" stroke-linecap="round" stroke-linejoin="round"/>
<path d="M291.1 189.9H315.7" stroke="#140735" stroke-miterlimit="10" stroke-linecap="round" stroke-linejoin="round"/>
</g>
<path d="M317.7 393.2C304.2 348.8 302.5 285.7 301.9 252.2C301.3 285.7 299.6 348.8 286.1 393.2H317.7Z" stroke="#140735" stroke-width="4" stroke-miterlimit="10" stroke-linecap="round" stroke-linejoin="round"/>
<path d="M249 474.9C254.6 450.1 276.2 431.6 301.9 431.6C327.6 431.6 349.2 450.1 354.8 474.9H382.3C308.7 373.4 312.4 293.1 312.4 172.5H291C291 293.1 294.7 373.4 221.1 474.9H249Z" stroke="#140735" stroke-width="4" stroke-miterlimit="10" stroke-linecap="round" stroke-linejoin="round"/>
<path d="M349.5 403.1H254.1V409.5H349.5V403.1Z" fill="#00B5E2"/>
<path d="M349.4 403.1H344.8V409.5H349.4V403.1Z" fill="white"/>
<path d="M345.4 390.4H258.1V403.1H345.4V390.4Z" fill="#00B5E2"/>
<path d="M345.4 390.4H341.4V403.1H345.4V390.4Z" fill="white"/>
<path d="M349.5 403.1H254.1V409.5H349.5V403.1Z" stroke="#140735" stroke-width="4" stroke-miterlimit="10" stroke-linecap="round" stroke-linejoin="round"/>
<path d="M345.4 390.4H258.1V403.1H345.4V390.4Z" stroke="#140735" stroke-width="4" stroke-miterlimit="10" stroke-linecap="round" stroke-linejoin="round"/>
<path d="M266 395.3V398.6" stroke="#140735" stroke-width="2" stroke-miterlimit="10" stroke-linecap="round" stroke-linejoin="round"/>
<path d="M337.8 395.3V398.6" stroke="#140735" stroke-width="2" stroke-miterlimit="10" stroke-linecap="round" stroke-linejoin="round"/>
<path d="M329.8 395.3V398.6" stroke="#140735" stroke-width="2" stroke-miterlimit="10" stroke-linecap="round" stroke-linejoin="round"/>
<path d="M321.8 395.3V398.6" stroke="#140735" stroke-width="2" stroke-miterlimit="10" stroke-linecap="round" stroke-linejoin="round"/>
<path d="M313.9 395.3V398.6" stroke="#140735" stroke-width="2" stroke-miterlimit="10" stroke-linecap="round" stroke-linejoin="round"/>
<path d="M305.9 395.3V398.6" stroke="#140735" stroke-width="2" stroke-miterlimit="10" stroke-linecap="round" stroke-linejoin="round"/>
<path d="M297.9 395.3V398.6" stroke="#140735" stroke-width="2" stroke-miterlimit="10" stroke-linecap="round" stroke-linejoin="round"/>
<path d="M289.9 395.3V398.6" stroke="#140735" stroke-width="2" stroke-miterlimit="10" stroke-linecap="round" stroke-linejoin="round"/>
<path d="M282 395.3V398.6" stroke="#140735" stroke-width="2" stroke-miterlimit="10" stroke-linecap="round" stroke-linejoin="round"/>
<path d="M274 395.3V398.6" stroke="#140735" stroke-width="2" stroke-miterlimit="10" stroke-linecap="round" stroke-linejoin="round"/>
<path d="M321.7 341.1H281.8L279.8 334.1H323.8L321.7 341.1Z" fill="#00B5E2"/>
<path d="M320.2 334.1L318.3 341.1H321.9L323.8 334.1H320.2Z" fill="white"/>
<path d="M321.7 341.1H281.8L279.8 334.1H323.8L321.7 341.1Z" stroke="#140735" stroke-width="4" stroke-miterlimit="10" stroke-linecap="round" stroke-linejoin="round"/>
<path d="M327.2 326.6H276.3V334.2H327.2V326.6Z" fill="#00B5E2"/>
<path d="M327.2 326.6H276.3V334.2H327.2V326.6Z" fill="#00B5E2"/>
<path d="M327.201 326.6H323.5V334.2H327.201V326.6Z" fill="white"/>
<path d="M327.2 326.6H276.3V334.2H327.2V326.6Z" stroke="#140735" stroke-width="4" stroke-miterlimit="10" stroke-linecap="round" stroke-linejoin="round"/>
<path d="M302 172.5V252.2" stroke="#140735" stroke-width="4" stroke-miterlimit="10" stroke-linecap="round" stroke-linejoin="round"/>
<path d="M305.3 143.3H298.5V173.9H305.3V143.3Z" fill="#FB2276"/>
<path d="M305.3 143.3H302.8V173.9H305.3V143.3Z" fill="white"/>
<path d="M301.9 143.3C300 143.3 298.5 144.8 298.5 146.7V173.9H305.3V146.7C305.3 144.9 303.8 143.3 301.9 143.3Z" stroke="#140735" stroke-width="4" stroke-miterlimit="10" stroke-linecap="round" stroke-linejoin="round"/>
<path d="M301.8 143.3V119.4" stroke="#140735" stroke-width="4" stroke-miterlimit="10" stroke-linecap="round" stroke-linejoin="round"/>
<path d="M301.9 184.4C309.301 184.4 315.3 178.401 315.3 171C315.3 163.599 309.301 157.6 301.9 157.6C294.499 157.6 288.5 163.599 288.5 171C288.5 178.401 294.499 184.4 301.9 184.4Z" fill="#00B5E2"/>
<path d="M301.9 157.6C301.1 157.6 300.4 157.7 299.7 157.8C306 158.9 310.9 164.4 310.9 171C310.9 177.6 306.1 183.1 299.7 184.2C300.4 184.3 301.2 184.4 301.9 184.4C309.3 184.4 315.3 178.4 315.3 171C315.3 163.6 309.3 157.6 301.9 157.6Z" fill="white"/>
<path d="M301.9 184.4C309.301 184.4 315.3 178.401 315.3 171C315.3 163.599 309.301 157.6 301.9 157.6C294.499 157.6 288.5 163.599 288.5 171C288.5 178.401 294.499 184.4 301.9 184.4Z" stroke="#140735" stroke-width="3" stroke-miterlimit="10" stroke-linecap="round" stroke-linejoin="round"/>
<path d="M285.9 172.2L287.8 179V192.1H315.7V179L317.6 172.2H285.9Z" fill="#00B5E2"/>
<path d="M314.3 172.2L312.4 179V192.1H315.7V179L317.6 172.2H314.3Z" fill="white"/>
<path d="M285.9 172.2L287.8 179V192.1H315.7V179L317.6 172.2H285.9Z" stroke="#140735" stroke-width="4" stroke-miterlimit="10" stroke-linecap="round" stroke-linejoin="round"/>
<path d="M297.4 184.4V192.1" stroke="#140735" stroke-width="3" stroke-miterlimit="10" stroke-linecap="round" stroke-linejoin="round"/>
<path d="M306.1 184.4V192.1" stroke="#140735" stroke-width="3" stroke-miterlimit="10" stroke-linecap="round" stroke-linejoin="round"/>
<path d="M317.5 165H285.9V172.2H317.5V165Z" fill="#00B5E2"/>
<path d="M317.6 165H314.4V172.2H317.6V165Z" fill="white"/>
<path d="M317.5 165H285.9V172.2H317.5V165Z" stroke="#140735" stroke-width="4" stroke-miterlimit="10" stroke-linecap="round" stroke-linejoin="round"/>
<path d="M235.5 474.9H257.3C262.8 454 280.9 439.6 302 439.6C323 439.6 341.1 454 346.7 474.9H370L343.3 433.9C343.3 433.9 303.6 422.4 306.1 420.6C308.6 418.8 252.8 443.9 252.8 443.9L235.5 474.9Z" fill="#AF1956"/>
<path d="M235.5 474.9H257.3C262.8 454 280.9 439.6 302 439.6C323 439.6 341.1 454 346.7 474.9H370L343.3 433.9C343.3 433.9 303.6 422.4 306.1 420.6C308.6 418.8 252.8 443.9 252.8 443.9L235.5 474.9Z" stroke="#140735" stroke-width="3" stroke-miterlimit="10" stroke-linecap="round" stroke-linejoin="round"/>
<path d="M312.5 172.5H291.1C291.1 293.1 294.8 373.4 221.2 474.9H249C254.6 450.1 276.2 431.6 301.9 431.6C327.6 431.6 349.2 450.1 354.8 474.9H382.3C308.7 373.4 312.5 293.1 312.5 172.5ZM286.1 393.2C299.6 348.8 301.3 285.7 301.9 252.2C302.5 285.7 304.2 348.8 317.7 393.2H286.1Z" fill="#FB2276"/>
<path d="M303.4 251.3C303.1 267.9 307.1 292.6 304.9 317.8C307.1 343.5 310.9 370.7 317.7 393.2H323.7C310.2 348.8 304 284.8 303.4 251.3Z" fill="#FB2276"/>
<path d="M297.1 172.5H291.1C291.1 293.1 294.8 373.4 221.2 474.9H227.2C300.8 373.4 297.1 293.1 297.1 172.5Z" fill="#FB2276"/>
<path d="M307.9 431.6C306.9 431.6 305.9 431.6 304.9 431.7C329.3 433.1 349.4 451.1 354.8 474.9H360.8C355.2 450.1 333.6 431.6 307.9 431.6Z" fill="#FB2276"/>
<path d="M327.2 409.5C327.2 409.5 337.3 438.5 341.4 445.5C336.7 446.7 336.3 445 336.3 445L332.2 436.1L322.8 409.5H327.2Z" fill="#FB2276"/>
<path d="M280.4 409.5C280.4 409.5 274 431.2 267.4 443.9" stroke="#140735" stroke-width="4" stroke-miterlimit="10" stroke-linecap="round" stroke-linejoin="round"/>
<path d="M322.8 409.5C322.8 409.5 329.2 431.2 335.8 443.9" stroke="#140735" stroke-width="4" stroke-miterlimit="10" stroke-linecap="round" stroke-linejoin="round"/>
<path d="M317.7 393.2C304.2 348.8 302.5 285.7 301.9 252.2C301.3 285.7 299.6 348.8 286.1 393.2H317.7Z" stroke="#140735" stroke-width="3" stroke-miterlimit="10" stroke-linecap="round" stroke-linejoin="round"/>
<g opacity="0.2">
<path d="M346.9 463.9H375.7" stroke="#140735" stroke-miterlimit="10" stroke-linecap="round" stroke-linejoin="round"/>
<path d="M228.9 463.9H256.6" stroke="#140735" stroke-miterlimit="10" stroke-linecap="round" stroke-linejoin="round"/>
<path d="M343.1 453.9H368.3" stroke="#140735" stroke-miterlimit="10" stroke-linecap="round" stroke-linejoin="round"/>
<path d="M235.5 453.9H260.4" stroke="#140735" stroke-miterlimit="10" stroke-linecap="round" stroke-linejoin="round"/>
<path d="M336.1 443.9H361.9" stroke="#140735" stroke-miterlimit="10" stroke-linecap="round" stroke-linejoin="round"/>
<path d="M241.6 443.9H267.4" stroke="#140735" stroke-miterlimit="10" stroke-linecap="round" stroke-linejoin="round"/>
<path d="M316.4 433.9H356.2" stroke="#140735" stroke-miterlimit="10" stroke-linecap="round" stroke-linejoin="round"/>
<path d="M247.3 433.9H286.1" stroke="#140735" stroke-miterlimit="10" stroke-linecap="round" stroke-linejoin="round"/>
<path d="M252.6 423.9H350.5" stroke="#140735" stroke-miterlimit="10" stroke-linecap="round" stroke-linejoin="round"/>
<path d="M257.7 413.9H345.9" stroke="#140735" stroke-miterlimit="10" stroke-linecap="round" stroke-linejoin="round"/>
<path d="M261.9 403.9H341.4" stroke="#140735" stroke-miterlimit="10" stroke-linecap="round" stroke-linejoin="round"/>
<path d="M266 393.9H337.3" stroke="#140735" stroke-miterlimit="10" stroke-linecap="round" stroke-linejoin="round"/>
<path d="M315.1 383.9H333.9" stroke="#140735" stroke-miterlimit="10" stroke-linecap="round" stroke-linejoin="round"/>
<path d="M269.5 383.9H288.7" stroke="#140735" stroke-miterlimit="10" stroke-linecap="round" stroke-linejoin="round"/>
<path d="M312.8 373.9H330.6" stroke="#140735" stroke-miterlimit="10" stroke-linecap="round" stroke-linejoin="round"/>
<path d="M272.8 373.9H291" stroke="#140735" stroke-miterlimit="10" stroke-linecap="round" stroke-linejoin="round"/>
<path d="M311 363.9H327.2" stroke="#140735" stroke-miterlimit="10" stroke-linecap="round" stroke-linejoin="round"/>
<path d="M275.8 363.9H293" stroke="#140735" stroke-miterlimit="10" stroke-linecap="round" stroke-linejoin="round"/>
<path d="M309.4 353.9H325.1" stroke="#140735" stroke-miterlimit="10" stroke-linecap="round" stroke-linejoin="round"/>
<path d="M278.1 353.9H294.7" stroke="#140735" stroke-miterlimit="10" stroke-linecap="round" stroke-linejoin="round"/>
<path d="M282.3 333.9H321.8" stroke="#140735" stroke-miterlimit="10" stroke-linecap="round" stroke-linejoin="round"/>
<path d="M305.7 323.9H317.7" stroke="#140735" stroke-miterlimit="10" stroke-linecap="round" stroke-linejoin="round"/>
<path d="M284.4 323.9H298.3" stroke="#140735" stroke-miterlimit="10" stroke-linecap="round" stroke-linejoin="round"/>
<path d="M304.6 313.9H317.7" stroke="#140735" stroke-miterlimit="10" stroke-linecap="round" stroke-linejoin="round"/>
<path d="M286.1 313.9H299.1" stroke="#140735" stroke-miterlimit="10" stroke-linecap="round" stroke-linejoin="round"/>
<path d="M303.9 303.9H316.5" stroke="#140735" stroke-miterlimit="10" stroke-linecap="round" stroke-linejoin="round"/>
<path d="M287 303.9H299.9" stroke="#140735" stroke-miterlimit="10" stroke-linecap="round" stroke-linejoin="round"/>
<path d="M303.4 293.9H315.5" stroke="#140735" stroke-miterlimit="10" stroke-linecap="round" stroke-linejoin="round"/>
<path d="M288.1 293.9H300.5" stroke="#140735" stroke-miterlimit="10" stroke-linecap="round" stroke-linejoin="round"/>
<path d="M303 283.9H314.7" stroke="#140735" stroke-miterlimit="10" stroke-linecap="round" stroke-linejoin="round"/>
<path d="M288.9 283.9H300.7" stroke="#140735" stroke-miterlimit="10" stroke-linecap="round" stroke-linejoin="round"/>
<path d="M289.9 273.9H314" stroke="#140735" stroke-miterlimit="10" stroke-linecap="round" stroke-linejoin="round"/>
<path d="M289.9 263.9H313.5" stroke="#140735" stroke-miterlimit="10" stroke-linecap="round" stroke-linejoin="round"/>
<path d="M290.4 253.9H313.1" stroke="#140735" stroke-miterlimit="10" stroke-linecap="round" stroke-linejoin="round"/>
<path d="M290.7 243.9H312.9" stroke="#140735" stroke-miterlimit="10" stroke-linecap="round" stroke-linejoin="round"/>
<path d="M290.9 233.9H312.9" stroke="#140735" stroke-miterlimit="10" stroke-linecap="round" stroke-linejoin="round"/>
<path d="M290.9 223.9H312.5" stroke="#140735" stroke-miterlimit="10" stroke-linecap="round" stroke-linejoin="round"/>
<path d="M290.9 213.9H312.4" stroke="#140735" stroke-miterlimit="10" stroke-linecap="round" stroke-linejoin="round"/>
<path d="M291.3 203.9H312.4" stroke="#140735" stroke-miterlimit="10" stroke-linecap="round" stroke-linejoin="round"/>
<path d="M291.4 199.9H312.4" stroke="#140735" stroke-miterlimit="10" stroke-linecap="round" stroke-linejoin="round"/>
<path d="M291.1 189.9H315.7" stroke="#140735" stroke-miterlimit="10" stroke-linecap="round" stroke-linejoin="round"/>
</g>
<path d="M317.7 393.2C304.2 348.8 302.5 285.7 301.9 252.2C301.3 285.7 299.6 348.8 286.1 393.2H317.7Z" stroke="#140735" stroke-width="4" stroke-miterlimit="10" stroke-linecap="round" stroke-linejoin="round"/>
<path d="M249 474.9C254.6 450.1 276.2 431.6 301.9 431.6C327.6 431.6 349.2 450.1 354.8 474.9H382.3C308.7 373.4 312.4 293.1 312.4 172.5H291C291 293.1 294.7 373.4 221.1 474.9H249Z" stroke="#140735" stroke-width="4" stroke-miterlimit="10" stroke-linecap="round" stroke-linejoin="round"/>
<path d="M349.5 403.1H254.1V409.5H349.5V403.1Z" fill="#00B5E2"/>
<path d="M349.4 403.1H344.8V409.5H349.4V403.1Z" fill="white"/>
<path d="M345.4 390.4H258.1V403.1H345.4V390.4Z" fill="#00B5E2"/>
<path d="M345.4 390.4H341.4V403.1H345.4V390.4Z" fill="white"/>
<path d="M349.5 403.1H254.1V409.5H349.5V403.1Z" stroke="#140735" stroke-width="4" stroke-miterlimit="10" stroke-linecap="round" stroke-linejoin="round"/>
<path d="M345.4 390.4H258.1V403.1H345.4V390.4Z" stroke="#140735" stroke-width="4" stroke-miterlimit="10" stroke-linecap="round" stroke-linejoin="round"/>
<path d="M266 395.3V398.6" stroke="#140735" stroke-width="2" stroke-miterlimit="10" stroke-linecap="round" stroke-linejoin="round"/>
<path d="M337.8 395.3V398.6" stroke="#140735" stroke-width="2" stroke-miterlimit="10" stroke-linecap="round" stroke-linejoin="round"/>
<path d="M329.8 395.3V398.6" stroke="#140735" stroke-width="2" stroke-miterlimit="10" stroke-linecap="round" stroke-linejoin="round"/>
<path d="M321.8 395.3V398.6" stroke="#140735" stroke-width="2" stroke-miterlimit="10" stroke-linecap="round" stroke-linejoin="round"/>
<path d="M313.9 395.3V398.6" stroke="#140735" stroke-width="2" stroke-miterlimit="10" stroke-linecap="round" stroke-linejoin="round"/>
<path d="M305.9 395.3V398.6" stroke="#140735" stroke-width="2" stroke-miterlimit="10" stroke-linecap="round" stroke-linejoin="round"/>
<path d="M297.9 395.3V398.6" stroke="#140735" stroke-width="2" stroke-miterlimit="10" stroke-linecap="round" stroke-linejoin="round"/>
<path d="M289.9 395.3V398.6" stroke="#140735" stroke-width="2" stroke-miterlimit="10" stroke-linecap="round" stroke-linejoin="round"/>
<path d="M282 395.3V398.6" stroke="#140735" stroke-width="2" stroke-miterlimit="10" stroke-linecap="round" stroke-linejoin="round"/>
<path d="M274 395.3V398.6" stroke="#140735" stroke-width="2" stroke-miterlimit="10" stroke-linecap="round" stroke-linejoin="round"/>
<path d="M321.7 341.1H281.8L279.8 334.1H323.8L321.7 341.1Z" fill="#00B5E2"/>
<path d="M320.2 334.1L318.3 341.1H321.9L323.8 334.1H320.2Z" fill="white"/>
<path d="M321.7 341.1H281.8L279.8 334.1H323.8L321.7 341.1Z" stroke="#140735" stroke-width="4" stroke-miterlimit="10" stroke-linecap="round" stroke-linejoin="round"/>
<path d="M327.2 326.6H276.3V334.2H327.2V326.6Z" fill="#00B5E2"/>
<path d="M327.2 326.6H276.3V334.2H327.2V326.6Z" fill="#00B5E2"/>
<path d="M327.201 326.6H323.5V334.2H327.201V326.6Z" fill="white"/>
<path d="M327.2 326.6H276.3V334.2H327.2V326.6Z" stroke="#140735" stroke-width="4" stroke-miterlimit="10" stroke-linecap="round" stroke-linejoin="round"/>
<path d="M302 172.5V252.2" stroke="#140735" stroke-width="4" stroke-miterlimit="10" stroke-linecap="round" stroke-linejoin="round"/>
<path d="M305.3 143.3H298.5V173.9H305.3V143.3Z" fill="#FB2276"/>
<path d="M305.3 143.3H301.8V173.9H305.3V143.3Z" fill="white"/>
<path d="M301.9 143.3C300 143.3 298.5 144.8 298.5 146.7V173.9H305.3V146.7C305.3 144.9 303.8 143.3 301.9 143.3Z" stroke="#140735" stroke-width="4" stroke-miterlimit="10" stroke-linecap="round" stroke-linejoin="round"/>
<path d="M301.8 143.3V119.4" stroke="#140735" stroke-width="4" stroke-miterlimit="10" stroke-linecap="round" stroke-linejoin="round"/>
<path d="M301.9 184.4C309.301 184.4 315.3 178.401 315.3 171C315.3 163.599 309.301 157.6 301.9 157.6C294.499 157.6 288.5 163.599 288.5 171C288.5 178.401 294.499 184.4 301.9 184.4Z" fill="#00B5E2"/>
<path d="M301.9 157.6C301.1 157.6 300.4 157.7 299.7 157.8C306 158.9 310.9 164.4 310.9 171C310.9 177.6 306.1 183.1 299.7 184.2C300.4 184.3 301.2 184.4 301.9 184.4C309.3 184.4 315.3 178.4 315.3 171C315.3 163.6 309.3 157.6 301.9 157.6Z" fill="white"/>
<path d="M301.9 184.4C309.301 184.4 315.3 178.401 315.3 171C315.3 163.599 309.301 157.6 301.9 157.6C294.499 157.6 288.5 163.599 288.5 171C288.5 178.401 294.499 184.4 301.9 184.4Z" stroke="#140735" stroke-width="3" stroke-miterlimit="10" stroke-linecap="round" stroke-linejoin="round"/>
<path d="M285.9 172.2L287.8 179V192.1H315.7V179L317.6 172.2H285.9Z" fill="#00B5E2"/>
<path d="M314.3 172.2L312.4 179V192.1H315.7V179L317.6 172.2H314.3Z" fill="white"/>
<path d="M285.9 172.2L287.8 179V192.1H315.7V179L317.6 172.2H285.9Z" stroke="#140735" stroke-width="4" stroke-miterlimit="10" stroke-linecap="round" stroke-linejoin="round"/>
<path d="M297.4 184.4V192.1" stroke="#140735" stroke-width="3" stroke-miterlimit="10" stroke-linecap="round" stroke-linejoin="round"/>
<path d="M306.1 184.4V192.1" stroke="#140735" stroke-width="3" stroke-miterlimit="10" stroke-linecap="round" stroke-linejoin="round"/>
<path d="M317.5 165H285.9V172.2H317.5V165Z" fill="#00B5E2"/>
<path d="M317.6 165H314.4V172.2H317.6V165Z" fill="white"/>
<path d="M317.5 165H285.9V172.2H317.5V165Z" stroke="#140735" stroke-width="4" stroke-miterlimit="10" stroke-linecap="round" stroke-linejoin="round"/>
</g>
<defs>
<clipPath id="clip0_97_366">
<rect width="600" height="600" fill="white"/>
</clipPath>
</defs>
</svg>
